<svg width="24" height="16" fill="none" xmlns="http://www.w3.org/2000/svg"><path fill-rule="evenodd" clip-rule="evenodd" d="M0 2C0 .9.9 0 2 0h20c1.1 0 2 .9 2 2v12c0 1.1-.9 2-2 2H2c-1.1 0-2-.9-2-2V2z" fill="#BBBBCF"/><path d="M10.74 11.62c-.14.06-.3.11-.49.15-.19.05-.41.09-.64.13-.22.03-.45.06-.68.07-.23.02-.45.03-.66.03-.62 0-1.19-.09-1.71-.27a3.75 3.75 0 01-1.35-.77 3.79 3.79 0 01-.89-1.26C4.11 9.2 4 8.63 4 7.99c0-.58.1-1.11.3-1.59.2-.49.49-.92.86-1.27.37-.36.82-.63 1.34-.83.53-.2 1.12-.3 1.78-.3.45 0 .84.02 1.19.07.35.04.68.11.99.2.08.02.13.04.14.07.02.02.02.04.02.07l-.14.87c-.01.05-.02.08-.05.1-.03.02-.09.02-.17-.01-.35-.1-.68-.17-.99-.21-.31-.05-.64-.07-1-.07-.45 0-.85.07-1.21.21-.37.14-.68.34-.94.6-.26.25-.46.55-.61.91-.14.35-.21.75-.21 1.18 0 .48.07.9.21 1.26.15.37.35.67.61.93.27.24.59.43.95.56.36.12.76.18 1.2.18.33 0 .62-.01.87-.04.24-.02.42-.06.54-.12V8.7H7.85a.18.18 0 01-.11-.03.122.122 0 01-.04-.09v-.82c0-.04.02-.08.05-.1a.15.15 0 01.11-.04h2.84c.12 0 .19.01.22.05.03.03.04.1.04.2v3.38c0 .1-.02.18-.07.24a.47.47 0 01-.15.13zM14.15 11.72c0 .09-.05.14-.14.14h-1.02c-.09 0-.14-.05-.14-.14V4.27c0-.09.05-.14.14-.14h1.02c.09 0 .14.05.14.14v7.45zM16.95 5.22v2.12h2.76c.1 0 .15.04.15.12v.83c0 .08-.05.12-.15.12h-2.76v3.29c0 .11-.05.16-.15.16h-.91c-.11 0-.17-.05-.17-.16V4.32c0-.08.01-.13.04-.15.03-.02.08-.04.14-.04h3.97c.03 0 .06.02.09.04s.04.05.04.09v.82c0 .09-.04.14-.13.14h-2.92z" fill="#fff"/>
<zoom style="*" dark_mode="|:#8AFFFFFF|:#FF242424"/>
</svg>