<svg viewBox="0 0 200 200" fill="none" style="background-color:#F7F9FA" xmlns="http://www.w3.org/2000/svg">
<mask id="mask0_5_75" style="mask-type:alpha" maskUnits="userSpaceOnUse" x="92" y="93" width="16" height="14">
<path d="M104 99C104 99.5523 103.552 100 103 100C102.448 100 102 99.5523 102 99C102 98.4477 102.448 98 103 98C103.552 98 104 98.4477 104 99Z" fill="#000001"/>
<path fill-rule="evenodd" clip-rule="evenodd" d="M92 95V105C92 106.105 92.8954 107 94 107H106C107.105 107 108 106.105 108 105V95C108 93.8954 107.105 93 106 93H94C92.8954 93 92 93.8954 92 95ZM94 94H106C106.552 94 107 94.4477 107 95V102.377L106.171 101.6C105.4 100.877 104.2 100.879 103.431 101.603L102.672 102.319L98.7014 98.597C97.9321 97.8758 96.7349 97.8758 95.9656 98.597L93 101.377V95C93 94.4477 93.4477 94 94 94ZM107 103.748L105.487 102.329C105.101 101.968 104.501 101.969 104.117 102.331L100.224 106H106C106.552 106 107 105.552 107 105V103.748ZM98.766 106H94C93.4477 106 93 105.552 93 105V102.748L96.6496 99.3266C97.0342 98.9659 97.6328 98.9659 98.0174 99.3266L101.937 103.002L98.766 106Z" fill="#000001"/>
</mask>
<g mask="url(#mask0_5_75)">
<rect width="16" height="16" transform="translate(92 92)" fill="#6E7680"/>
</g>
</svg>
