<svg width="14" height="14" viewBox="0 0 14 14" fill="none" xmlns="http://www.w3.org/2000/svg">
<path fill-rule="evenodd" clip-rule="evenodd" d="M6.7049 9.0697C6.69871 9.06418 6.69264 9.05845 6.6867 9.05252C6.6817 9.04753 6.67685 9.04245 6.67214 9.03728L3.19136 5.55654C3.0205 5.38569 3.02071 5.10889 3.19183 4.93829C3.36294 4.7677 3.64016 4.76791 3.81102 4.93876L6.99737 8.12508L10.1916 4.94083C10.3628 4.77024 10.6401 4.77035 10.8111 4.94107C10.9821 5.1118 10.982 5.38848 10.8108 5.55907L7.37349 8.98562C7.35663 9.01199 7.33665 9.03695 7.31355 9.05997C7.14592 9.2271 6.87643 9.23029 6.7049 9.0697Z" fill="#131619"/>
</svg>
