<svg width="14" height="14" viewBox="0 0 14 14" fill="none" xmlns="http://www.w3.org/2000/svg">
<path d="M0.746859 0.128171C0.576005 -0.0426831 0.298995 -0.0426831 0.128141 0.128171C-0.0427136 0.299026 -0.0427136 0.576035 0.128141 0.74689L6.38128 7.00003L0.128141 13.2532C-0.0427136 13.424 -0.0427136 13.701 0.128141 13.8719C0.298995 14.0427 0.576005 14.0427 0.746859 13.8719L7 7.61875L13.2531 13.8719C13.424 14.0427 13.701 14.0427 13.8719 13.8719C14.0427 13.701 14.0427 13.424 13.8719 13.2532L7.61872 7.00003L13.8719 0.74689C14.0427 0.576035 14.0427 0.299026 13.8719 0.128171C13.701 -0.0426831 13.424 -0.0426831 13.2531 0.128171L7 6.38131L0.746859 0.128171Z" fill="currentColor"/>
</svg>
