<svg width="16" height="16" viewBox="0 0 16 16" fill="none" xmlns="http://www.w3.org/2000/svg">
<path fill-rule="evenodd" clip-rule="evenodd" d="M5.79289 7.99999C6.18342 7.60946 6.81658 7.60946 7.20711 7.99999L9.5 10.2929L10.1936 9.59926C10.6536 9.13923 11.4235 9.234 11.7582 9.79187L12.8931 11.6834C12.9631 11.7999 13 11.9333 13 12.0692V12.25C13 12.6642 12.6642 13 12.25 13H3.75C3.33579 13 3 12.6642 3 12.25V11.1035C3 10.9046 3.07902 10.7139 3.21967 10.5732L5.79289 7.99999ZM4 11.2071V12H11.9169L10.9007 10.3064L9.85355 11.3535C9.65829 11.5488 9.34171 11.5488 9.14645 11.3535L6.5 8.70709L4 11.2071Z" fill="#ebeef4"/>
<path d="M10 8C10.5523 8 11 7.55228 11 7C11 6.44772 10.5523 6 10 6C9.44771 6 9 6.44772 9 7C9 7.55228 9.44771 8 10 8Z" fill="#ebeef4"/>
<path fill-rule="evenodd" clip-rule="evenodd" d="M14.3996 3.98324L10.9165 0.571283C10.5427 0.205094 10.0403 0 9.51696 0H4C2.34315 0 1 1.34315 1 3V13C1 14.6569 2.34315 16 4 16H12C13.6569 16 15 14.6569 15 13V5.41196C15 4.87438 14.7836 4.35943 14.3996 3.98324ZM2 3V13C2 14.1046 2.89543 15 4 15H12C13.1046 15 14 14.1046 14 13V5.41196C14 5.14317 13.8918 4.8857 13.6998 4.6976L10.2167 1.28564C10.0298 1.10255 9.77861 1 9.51696 1H4C2.89543 1 2 1.89543 2 3Z" fill="#ebeef4"/>

</svg>
