<svg width="16" height="16" viewBox="0 0 16 16" fill="none" xmlns="http://www.w3.org/2000/svg">
<path fill-rule="evenodd" clip-rule="evenodd" d="M15 14H14.8293C14.4175 15.1652 13.3062 16 12 16H4C2.34315 16 1 14.6569 1 13V3C1 1.34315 2.34315 0 4 0H9.51696C10.0403 0 10.5427 0.205094 10.9165 0.571283L14.3996 3.98324C14.7836 4.35943 15 4.87438 15 5.41196V9C15.5523 9 16 9.44772 16 10V13C16 13.5523 15.5523 14 15 14ZM2 13V3C2 1.89543 2.89543 1 4 1H9.21484V4.14284C9.21484 4.97127 9.88642 5.64284 10.7148 5.64284H14V9H8C7.44772 9 7 9.44771 7 10V13C7 13.5523 7.44772 14 8 14H13.7324C13.3866 14.5978 12.7403 15 12 15H4C2.89543 15 2 14.1046 2 13ZM13.6439 4.64284L10.2167 1.28564L10.2148 1.28379V4.14284C10.2148 4.41898 10.4387 4.64284 10.7148 4.64284H13.6439ZM9.21958 10.144V13H10.7996V12.524H9.73158V11.792H10.7276V11.316H9.73158V10.62H10.7996V10.144H9.21958ZM7.83158 12.984C7.87424 13.0266 7.92891 13.048 7.99558 13.048C8.06224 13.048 8.11825 13.0266 8.16358 12.984C8.20891 12.9386 8.23158 12.8706 8.23158 12.78C8.23158 12.6866 8.20891 12.62 8.16358 12.58C8.12091 12.54 8.06491 12.52 7.99558 12.52C7.92891 12.52 7.87424 12.5413 7.83158 12.584C7.78891 12.624 7.76758 12.6893 7.76758 12.78C7.76758 12.8706 7.78891 12.9386 7.83158 12.984ZM11.0796 13V10.144H11.8516L11.9756 11.748H12.0076L12.1356 10.144H12.9196V13H12.4436V12.244C12.4436 12.1533 12.4449 12.0533 12.4476 11.944C12.4529 11.832 12.4582 11.7173 12.4636 11.6C12.4716 11.48 12.4796 11.3653 12.4876 11.256C12.4956 11.144 12.5022 11.0413 12.5076 10.948C12.5156 10.852 12.5222 10.7733 12.5276 10.712C12.5329 10.648 12.5356 10.6066 12.5356 10.588H12.5076L12.2516 12.284H11.7316L11.4836 10.588H11.4556C11.4582 10.6066 11.4609 10.648 11.4636 10.712C11.4689 10.776 11.4742 10.8546 11.4796 10.948C11.4876 11.0413 11.4956 11.144 11.5036 11.256C11.5116 11.368 11.5182 11.484 11.5236 11.604C11.5316 11.7213 11.5369 11.8373 11.5396 11.952C11.5449 12.0666 11.5476 12.1733 11.5476 12.272V13H11.0796ZM13.2596 10.144V13H14.7996V12.536H13.7716V10.144H13.2596Z" fill="#2e2e2e"/>

</svg>
