<svg width="16" height="16" viewBox="0 0 16 16" fill="none" xmlns="http://www.w3.org/2000/svg">
<path d="M15.3335 1H4.6665C4.48973 1 4.32021 1.07022 4.19521 1.19521C4.07022 1.32021 4 1.48973 4 1.6665V4.5L10 6.25L16 4.5V1.6665C16 1.48973 15.9298 1.32021 15.8048 1.19521C15.6798 1.07022 15.5103 1 15.3335 1Z" fill="#41A5EE"/>
<path d="M16 4.5H4V8L10 9.75L16 8V4.5Z" fill="#2B7CD3"/>
<path d="M16 8H4V11.5L10 13.25L16 11.5V8Z" fill="#185ABD"/>
<path d="M16 11.5H4V14.3335C4 14.5103 4.07022 14.6798 4.19521 14.8048C4.32021 14.9298 4.48973 15 4.6665 15H15.3335C15.5103 15 15.6798 14.9298 15.8048 14.8048C15.9298 14.6798 16 14.5103 16 14.3335V11.5Z" fill="#103F91"/>
<path opacity="0.1" d="M8.3335 3.5H4V13H8.3335C8.5101 12.9995 8.67933 12.9291 8.8042 12.8042C8.92908 12.6793 8.99947 12.5101 9 12.3335V4.1665C8.99947 3.9899 8.92908 3.82068 8.8042 3.6958C8.67933 3.57092 8.5101 3.50053 8.3335 3.5Z" fill="black"/>
<path opacity="0.2" d="M7.8335 4H4V13.5H7.8335C8.0101 13.4995 8.17933 13.4291 8.3042 13.3042C8.42908 13.1793 8.49947 13.0101 8.5 12.8335V4.6665C8.49947 4.4899 8.42908 4.32067 8.3042 4.1958C8.17933 4.07092 8.0101 4.00053 7.8335 4Z" fill="black"/>
<path opacity="0.2" d="M7.8335 4H4V12.5H7.8335C8.0101 12.4995 8.17933 12.4291 8.3042 12.3042C8.42908 12.1793 8.49947 12.0101 8.5 11.8335V4.6665C8.49947 4.4899 8.42908 4.32067 8.3042 4.1958C8.17933 4.07092 8.0101 4.00053 7.8335 4Z" fill="black"/>
<path opacity="0.2" d="M7.3335 4H4V12.5H7.3335C7.5101 12.4995 7.67933 12.4291 7.8042 12.3042C7.92908 12.1793 7.99947 12.0101 8 11.8335V4.6665C7.99947 4.4899 7.92908 4.32067 7.8042 4.1958C7.67933 4.07092 7.5101 4.00053 7.3335 4Z" fill="black"/>
<path d="M0.6665 4H7.3335C7.51027 4 7.67979 4.07022 7.80479 4.19521C7.92978 4.32021 8 4.48973 8 4.6665V11.3335C8 11.5103 7.92978 11.6798 7.80479 11.8048C7.67979 11.9298 7.51027 12 7.3335 12H0.6665C0.489733 12 0.320206 11.9298 0.195213 11.8048C0.0702203 11.6798 0 11.5103 0 11.3335L0 4.6665C0 4.48973 0.0702203 4.32021 0.195213 4.19521C0.320206 4.07022 0.489733 4 0.6665 4Z" fill="#185ABD"/>
<path d="M5.97539 10.5H5.07539L4.02539 7.05L2.92539 10.5H2.02539L1.02539 5.5H1.92539L2.62539 9L3.67539 5.6H4.42539L5.42539 9L6.12539 5.5H6.97539L5.97539 10.5Z" fill="white"/>
</svg>
