<svg width="16" height="16" viewBox="0 0 16 16" fill="none" xmlns="http://www.w3.org/2000/svg">
<path d="M10.1436 11.46C10.0796 11.4893 10.0036 11.504 9.91558 11.504H9.73158V10.612H9.95558C10.0756 10.612 10.1702 10.6467 10.2396 10.716C10.3116 10.7827 10.3476 10.888 10.3476 11.032C10.3476 11.1493 10.3289 11.2427 10.2916 11.312C10.2569 11.3813 10.2076 11.4307 10.1436 11.46Z" fill="#2e2e2e"/>
<path fill-rule="evenodd" clip-rule="evenodd" d="M15 14H14.8293C14.4175 15.1652 13.3062 16 12 16H4C2.34315 16 1 14.6569 1 13V3C1 1.34315 2.34315 0 4 0H9.51696C10.0403 0 10.5427 0.205094 10.9165 0.571283L14.3996 3.98324C14.7836 4.35943 15 4.87438 15 5.41196V9C15.5523 9 16 9.44771 16 10V13C16 13.5523 15.5523 14 15 14ZM2 13V3C2 1.89543 2.89543 1 4 1H9.21484V4.14284C9.21484 4.97127 9.88642 5.64284 10.7148 5.64284H14V9H8C7.44772 9 7 9.44771 7 10V13C7 13.5523 7.44772 14 8 14H13.7324C13.3866 14.5978 12.7403 15 12 15H4C2.89543 15 2 14.1046 2 13ZM13.6439 4.64284L10.2167 1.28564L10.2148 1.28379V4.14284C10.2148 4.41898 10.4387 4.64284 10.7148 4.64284H13.6439ZM13.5316 13C13.6462 13.0267 13.7622 13.04 13.8796 13.04C14.0316 13.04 14.1649 13.02 14.2796 12.98C14.3969 12.9373 14.4956 12.8787 14.5756 12.804C14.6556 12.7267 14.7156 12.636 14.7556 12.532C14.7982 12.4253 14.8196 12.308 14.8196 12.18C14.8196 12.0413 14.7969 11.9253 14.7516 11.832C14.7062 11.7387 14.6396 11.6573 14.5516 11.588C14.4636 11.516 14.3569 11.4467 14.2316 11.38C14.1169 11.316 14.0209 11.2627 13.9436 11.22C13.8662 11.1747 13.8076 11.1267 13.7676 11.076C13.7276 11.0253 13.7076 10.9613 13.7076 10.884C13.7076 10.8147 13.7222 10.7587 13.7516 10.716C13.7836 10.6733 13.8289 10.6413 13.8876 10.62C13.9462 10.5987 14.0156 10.588 14.0956 10.588C14.1729 10.588 14.2502 10.5987 14.3276 10.62C14.4076 10.6413 14.5009 10.68 14.6076 10.736L14.7796 10.272C14.6596 10.2107 14.5449 10.168 14.4356 10.144C14.3289 10.1173 14.2169 10.104 14.0996 10.104C13.8996 10.104 13.7302 10.1387 13.5916 10.208C13.4556 10.2747 13.3529 10.3693 13.2836 10.492C13.2142 10.612 13.1796 10.752 13.1796 10.912C13.1796 11.072 13.2102 11.2027 13.2716 11.304C13.3356 11.4027 13.4156 11.484 13.5116 11.548C13.6102 11.612 13.7089 11.672 13.8076 11.728C13.9142 11.7867 14.0022 11.84 14.0716 11.888C14.1436 11.9333 14.1969 11.9827 14.2316 12.036C14.2662 12.0867 14.2836 12.1507 14.2836 12.228C14.2836 12.2947 14.2702 12.3533 14.2436 12.404C14.2169 12.452 14.1729 12.4893 14.1116 12.516C14.0529 12.5427 13.9756 12.556 13.8796 12.556C13.7569 12.556 13.6409 12.536 13.5316 12.496C13.4249 12.4533 13.3116 12.4013 13.1916 12.34V12.876C13.3036 12.932 13.4169 12.9733 13.5316 13ZM9.21958 10.144V13H9.73158V11.98H9.98358C10.1836 11.98 10.3489 11.9413 10.4796 11.864C10.6102 11.784 10.7076 11.6733 10.7716 11.532C10.8356 11.388 10.8676 11.22 10.8676 11.028C10.8676 10.74 10.7956 10.5213 10.6516 10.372C10.5102 10.22 10.2956 10.144 10.0076 10.144H9.21958ZM7.83158 12.984C7.87424 13.0267 7.92891 13.048 7.99558 13.048C8.06224 13.048 8.11825 13.0267 8.16358 12.984C8.20891 12.9387 8.23158 12.8707 8.23158 12.78C8.23158 12.6867 8.20891 12.62 8.16358 12.58C8.12091 12.54 8.06491 12.52 7.99558 12.52C7.92891 12.52 7.87424 12.5413 7.83158 12.584C7.78891 12.624 7.76758 12.6893 7.76758 12.78C7.76758 12.8707 7.78891 12.9387 7.83158 12.984ZM11.4716 13L12.3116 10.592H11.2556V10.144H12.8236V10.496L12.0036 13H11.4716Z" fill="#2e2e2e"/>

</svg>
