<svg width="16" height="16" viewBox="0 0 16 16" fill="none" xmlns="http://www.w3.org/2000/svg">
<path d="M10 1H4.6665C4.48973 1 4.32021 1.07022 4.19521 1.19521C4.07022 1.32021 4 1.48973 4 1.6665V4.5L10 8L13 9.266L16 8V4.5L10 1Z" fill="#21A366"/>
<path d="M4 4.5H10V8H4V4.5Z" fill="#107C41"/>
<path d="M15.3335 1H10V4.5H16V1.6665C16 1.48973 15.9298 1.32021 15.8048 1.19521C15.6798 1.07022 15.5103 1 15.3335 1Z" fill="#33C481"/>
<path d="M10 8H4V14.3335C4 14.5103 4.07022 14.6798 4.19521 14.8048C4.32021 14.9298 4.48973 15 4.6665 15H15.3335C15.5103 15 15.6798 14.9298 15.8048 14.8048C15.9298 14.6798 16 14.5103 16 14.3335V11.5L10 8Z" fill="#185C37"/>
<path d="M10 8H16V11.5H10V8Z" fill="#107C41"/>
<path opacity="0.1" d="M8.3335 3.5H4V13H8.3335C8.5101 12.9995 8.67933 12.9291 8.8042 12.8042C8.92908 12.6793 8.99947 12.5101 9 12.3335V4.1665C8.99947 3.9899 8.92908 3.82068 8.8042 3.6958C8.67933 3.57092 8.5101 3.50053 8.3335 3.5Z" fill="black"/>
<path opacity="0.2" d="M7.8335 4H4V13.5H7.8335C8.0101 13.4995 8.17933 13.4291 8.3042 13.3042C8.42908 13.1793 8.49947 13.0101 8.5 12.8335V4.6665C8.49947 4.4899 8.42908 4.32067 8.3042 4.1958C8.17933 4.07092 8.0101 4.00053 7.8335 4Z" fill="black"/>
<path opacity="0.2" d="M7.8335 4H4V12.5H7.8335C8.0101 12.4995 8.17933 12.4291 8.3042 12.3042C8.42908 12.1793 8.49947 12.0101 8.5 11.8335V4.6665C8.49947 4.4899 8.42908 4.32067 8.3042 4.1958C8.17933 4.07092 8.0101 4.00053 7.8335 4Z" fill="black"/>
<path opacity="0.2" d="M7.3335 4H4V12.5H7.3335C7.5101 12.4995 7.67933 12.4291 7.8042 12.3042C7.92908 12.1793 7.99947 12.0101 8 11.8335V4.6665C7.99947 4.4899 7.92908 4.32067 7.8042 4.1958C7.67933 4.07092 7.5101 4.00053 7.3335 4Z" fill="black"/>
<path d="M0.6665 4H7.3335C7.51027 4 7.67979 4.07022 7.80479 4.19521C7.92978 4.32021 8 4.48973 8 4.6665V11.3335C8 11.5103 7.92978 11.6798 7.80479 11.8048C7.67979 11.9298 7.51027 12 7.3335 12H0.6665C0.489733 12 0.320206 11.9298 0.195213 11.8048C0.0702203 11.6798 0 11.5103 0 11.3335L0 4.6665C0 4.48973 0.0702203 4.32021 0.195213 4.19521C0.320206 4.07022 0.489733 4 0.6665 4Z" fill="#107C41"/>
<path d="M1.76562 10.5L3.38363 7.993L1.90163 5.5H3.09413L3.90313 7.0935C3.97746 7.2445 4.02862 7.35717 4.05662 7.4315H4.06712C4.12046 7.31083 4.17629 7.1935 4.23462 7.0795L5.09912 5.5H6.19362L4.67362 7.979L6.23212 10.5H5.06712L4.13263 8.75C4.0886 8.67546 4.05129 8.59715 4.02112 8.516H4.00712C3.97985 8.59536 3.94362 8.67135 3.89913 8.7425L2.93762 10.5H1.76562Z" fill="white"/>
</svg>
