<svg width="16" height="16" viewBox="0 0 16 16" fill="none" xmlns="http://www.w3.org/2000/svg">
<path fill-rule="evenodd" clip-rule="evenodd" d="M5.75 11.3504V6.6496C5.75 6.15349 6.26224 5.84102 6.67681 6.08425L10.683 8.43465C11.1057 8.68263 11.1057 9.31737 10.683 9.56535L6.67681 11.9158C6.26224 12.159 5.75 11.8465 5.75 11.3504ZM9.67045 9L6.75 7.28659V10.7134L9.67045 9Z" fill="#ebeef4"/>
<path fill-rule="evenodd" clip-rule="evenodd" d="M14.3996 3.98324L10.9165 0.571283C10.5427 0.205094 10.0403 0 9.51696 0H4C2.34315 0 1 1.34315 1 3V13C1 14.6569 2.34315 16 4 16H12C13.6569 16 15 14.6569 15 13V5.41196C15 4.87438 14.7836 4.35943 14.3996 3.98324ZM2 13V3C2 1.89543 2.89543 1 4 1H9.51696C9.77861 1 10.0298 1.10255 10.2167 1.28564L13.6998 4.6976C13.8918 4.8857 14 5.14317 14 5.41196V13C14 14.1046 13.1046 15 12 15H4C2.89543 15 2 14.1046 2 13Z" fill="#ebeef4"/>

</svg>
