<svg width="16" height="16" viewBox="0 0 16 16" fill="none" xmlns="http://www.w3.org/2000/svg">
<path fill-rule="evenodd" clip-rule="evenodd" d="M4.14646 5.14646C4.28038 5.01254 4.47846 4.96578 4.65813 5.02567L9.29058 6.56982C10.3114 6.91011 11 7.86546 11 8.94153V10L12 12L11 13L9.00003 12H7.94153C6.86546 12 5.91011 11.3114 5.56982 10.2906L4.02567 5.65813C3.96578 5.47846 4.01254 5.28038 4.14646 5.14646ZM10 11L7.94153 11C7.29589 11 6.72268 10.5869 6.51851 9.97435L5.64414 7.35124L7.64646 9.35357C7.84172 9.54883 8.1583 9.54883 8.35357 9.35357C8.54883 9.1583 8.54883 8.84172 8.35357 8.64646L6.35124 6.64414L8.97435 7.51851C9.58687 7.72268 10 8.29589 10 8.94153V11Z" fill="#ebeef4"/>
<path fill-rule="evenodd" clip-rule="evenodd" d="M14.3996 3.98324L10.9165 0.571283C10.5427 0.205094 10.0403 0 9.51696 0H4C2.34315 0 1 1.34315 1 3V13C1 14.6569 2.34315 16 4 16H12C13.6569 16 15 14.6569 15 13V5.41196C15 4.87438 14.7836 4.35943 14.3996 3.98324ZM2 3V13C2 14.1046 2.89543 15 4 15H12C13.1046 15 14 14.1046 14 13V5.41196C14 5.14317 13.8918 4.88569 13.6998 4.6976L10.2167 1.28564C10.0298 1.10255 9.77861 1 9.51696 1H4C2.89543 1 2 1.89543 2 3Z" fill="#ebeef4"/>

</svg>
