<svg width="16" height="16" viewBox="0 0 16 16" fill="none" xmlns="http://www.w3.org/2000/svg">
<path fill-rule="evenodd" clip-rule="evenodd" d="M10.9165 0.571283L14.3996 3.98324C14.7836 4.35943 15 4.87438 15 5.41196V13C15 14.6569 13.6569 16 12 16H4C2.34315 16 1 14.6569 1 13V3C1 1.34315 2.34315 0 4 0H9.51696C10.0403 0 10.5427 0.205094 10.9165 0.571283ZM2 13V3C2 1.89543 2.89543 1 4 1L4 2H6V3H4V4H6V5H4V6H6V7H4V12C4 12.5523 4.44772 13 5 13H7C7.55228 13 8 12.5523 8 12V8H6V7H8V6H6V5H8V4H6V3H8V2H6V1H9.51696C9.77861 1 10.0298 1.10255 10.2167 1.28564L13.6998 4.6976C13.8918 4.88569 14 5.14317 14 5.41196V13C14 14.1046 13.1046 15 12 15H4C2.89543 15 2 14.1046 2 13ZM5 11.5C5 11.2239 5.22386 11 5.5 11H6.5C6.77614 11 7 11.2239 7 11.5C7 11.7761 6.77614 12 6.5 12H5.5C5.22386 12 5 11.7761 5 11.5Z" fill="#2e2e2e"/>
</svg>
