<svg width="16" height="16" viewBox="0 0 16 16" fill="none" xmlns="http://www.w3.org/2000/svg">
<path d="M11.9311 11.432C12.0245 11.432 12.1005 11.4173 12.1591 11.388C12.2205 11.3586 12.2658 11.3133 12.2951 11.252C12.3271 11.1906 12.3431 11.1146 12.3431 11.024C12.3431 10.888 12.3098 10.7853 12.2431 10.716C12.1765 10.644 12.0751 10.608 11.9391 10.608H11.7311V11.432H11.9311Z" fill="#2e2e2e"/>
<path d="M14.2431 12.428C14.1845 12.492 14.1005 12.524 13.9911 12.524H13.7191V11.768H13.9711C14.0485 11.768 14.1138 11.7813 14.1671 11.808C14.2205 11.8346 14.2618 11.876 14.2911 11.932C14.3205 11.988 14.3351 12.0586 14.3351 12.144C14.3351 12.2666 14.3045 12.3613 14.2431 12.428Z" fill="#2e2e2e"/>
<path d="M14.1991 11.196C14.1405 11.2573 14.0565 11.288 13.9471 11.288H13.7191V10.588H13.9391C14.0511 10.588 14.1378 10.6186 14.1991 10.68C14.2605 10.7386 14.2911 10.824 14.2911 10.936C14.2911 11.0453 14.2605 11.132 14.1991 11.196Z" fill="#2e2e2e"/>
<path fill-rule="evenodd" clip-rule="evenodd" d="M15 14H14.8293C14.4175 15.1652 13.3062 16 12 16H4C2.34315 16 1 14.6569 1 13V3C1 1.34315 2.34315 0 4 0H9.51696C10.0403 0 10.5427 0.205094 10.9165 0.571283L14.3996 3.98324C14.7836 4.35943 15 4.87438 15 5.41196V9C15.5523 9 16 9.44772 16 10V13C16 13.5523 15.5523 14 15 14ZM2 13V3C2 1.89543 2.89543 1 4 1H9.21484V4.14284C9.21484 4.97127 9.88642 5.64284 10.7148 5.64284H14V9H10C9.44772 9 9 9.44771 9 10V13C9 13.5523 9.44771 14 10 14H13.7324C13.3866 14.5978 12.7403 15 12 15H4C2.89543 15 2 14.1046 2 13ZM13.6439 4.64284L10.2167 1.28564L10.2148 1.28379V4.14284C10.2148 4.41898 10.4387 4.64284 10.7148 4.64284H13.6439ZM11.2191 13V10.144H11.9431C12.1511 10.144 12.3245 10.1746 12.4631 10.236C12.6018 10.2973 12.7045 10.3893 12.7711 10.512C12.8405 10.632 12.8751 10.7826 12.8751 10.964C12.8751 11.084 12.8591 11.1946 12.8271 11.296C12.7978 11.3973 12.7498 11.488 12.6831 11.568C12.6191 11.648 12.5365 11.716 12.4351 11.772L12.9591 13H12.3951L11.9831 11.904H11.7311V13H11.2191ZM9.99912 13.044C9.90846 13.044 9.83646 13.0173 9.78312 12.964C9.72979 12.908 9.70312 12.8293 9.70312 12.728C9.70312 12.6266 9.72846 12.5493 9.77913 12.496C9.82979 12.44 9.90312 12.412 9.99912 12.412C10.0925 12.412 10.1645 12.4386 10.2151 12.492C10.2658 12.5426 10.2911 12.6213 10.2911 12.728C10.2911 12.8293 10.2645 12.908 10.2111 12.964C10.1605 13.0173 10.0898 13.044 9.99912 13.044ZM13.2191 10.144V13H14.0671C14.2298 13 14.3711 12.968 14.4911 12.904C14.6111 12.84 14.7031 12.7466 14.7671 12.624C14.8338 12.4986 14.8671 12.348 14.8671 12.172C14.8671 12.0466 14.8511 11.9386 14.8191 11.848C14.7898 11.7546 14.7431 11.68 14.6791 11.624C14.6151 11.5653 14.5325 11.5253 14.4311 11.504V11.484C14.5565 11.452 14.6525 11.3813 14.7191 11.272C14.7858 11.1626 14.8191 11.0253 14.8191 10.86C14.8191 10.6173 14.7458 10.4373 14.5991 10.32C14.4551 10.2026 14.2378 10.144 13.9471 10.144H13.2191Z" fill="#2e2e2e"/>

</svg>
