<svg width="16" height="16" viewBox="0 0 16 16" fill="none" xmlns="http://www.w3.org/2000/svg">
<path d="M12.0911 11.116L12.2249 11.832H11.7799L11.9111 11.112L11.9391 10.952C11.9525 10.8907 11.9645 10.828 11.9751 10.764C11.9858 10.6974 11.9951 10.6374 12.0031 10.584C12.0111 10.6374 12.0191 10.696 12.0271 10.76C12.0378 10.8214 12.0485 10.884 12.0591 10.948C12.0725 11.0094 12.0831 11.0654 12.0911 11.116Z" fill="#ebeef4"/>
<path d="M10.2431 12.284C10.1498 12.444 10.0031 12.524 9.80313 12.524H9.65112V10.62H9.82713C9.95246 10.62 10.0565 10.652 10.1391 10.716C10.2218 10.78 10.2831 10.88 10.3231 11.016C10.3658 11.152 10.3871 11.328 10.3871 11.544C10.3871 11.8774 10.3391 12.124 10.2431 12.284Z" fill="#ebeef4"/>
<path fill-rule="evenodd" clip-rule="evenodd" d="M15 14H14.8293C14.4175 15.1652 13.3062 16 12 16H4C2.34315 16 1 14.6569 1 13V3C1 1.34315 2.34315 0 4 0H9.51696C10.0403 0 10.5427 0.205094 10.9165 0.571283L14.3996 3.98324C14.7836 4.35943 15 4.87438 15 5.41196V9C15.5523 9 16 9.44772 16 10V13C16 13.5523 15.5523 14 15 14ZM2 13V3C2 1.89543 2.89543 1 4 1H9.21484V4.14284C9.21484 4.97127 9.88642 5.64284 10.7148 5.64284H14V9H8C7.44772 9 7 9.44771 7 10V13C7 13.5523 7.44772 14 8 14H13.7324C13.3866 14.5978 12.7403 15 12 15H4C2.89543 15 2 14.1046 2 13ZM13.6439 4.64284L10.2167 1.28564L10.2148 1.28379V4.14284C10.2148 4.41898 10.4387 4.64284 10.7148 4.64284H13.6439ZM11.0391 13L11.6271 10.132H12.3591L12.9591 13H12.4431L12.3123 12.3H11.6947L11.5671 13H11.0391ZM9.13912 10.144V13H9.83512C10.0698 13 10.2671 12.944 10.4271 12.832C10.5871 12.7174 10.7085 12.5507 10.7911 12.332C10.8765 12.1107 10.9191 11.84 10.9191 11.52C10.9191 11.2214 10.8791 10.9707 10.7991 10.768C10.7191 10.5627 10.6005 10.408 10.4431 10.304C10.2885 10.1974 10.0991 10.144 9.87512 10.144H9.13912ZM7.78312 12.964C7.83646 13.0174 7.90846 13.044 7.99913 13.044C8.08979 13.044 8.16046 13.0174 8.21113 12.964C8.26446 12.908 8.29113 12.8294 8.29113 12.728C8.29113 12.6214 8.26579 12.5427 8.21513 12.492C8.16446 12.4387 8.09246 12.412 7.99913 12.412C7.90312 12.412 7.82979 12.44 7.77913 12.496C7.72846 12.5494 7.70312 12.6267 7.70312 12.728C7.70312 12.8294 7.72979 12.908 7.78312 12.964ZM13.7431 10.62V13H14.2551V10.62H14.8991V10.144H13.0991V10.62H13.7431Z" fill="#ebeef4"/>

</svg>
