<svg width="16" height="16" viewBox="0 0 16 16" fill="none" xmlns="http://www.w3.org/2000/svg">
<path d="M10.1431 11.46C10.0791 11.4893 10.0031 11.504 9.91512 11.504H9.73112V10.612H9.95512C10.0751 10.612 10.1698 10.6466 10.2391 10.716C10.3111 10.7826 10.3471 10.888 10.3471 11.032C10.3471 11.1493 10.3285 11.2426 10.2911 11.312C10.2565 11.3813 10.2071 11.4306 10.1431 11.46Z" fill="#2e2e2e"/>
<path d="M11.8031 12.524C12.0031 12.524 12.1498 12.444 12.2431 12.284C12.3391 12.124 12.3871 11.8773 12.3871 11.544C12.3871 11.328 12.3658 11.152 12.3231 11.016C12.2831 10.88 12.2218 10.78 12.1391 10.716C12.0565 10.652 11.9525 10.62 11.8271 10.62H11.6511V12.524H11.8031Z" fill="#2e2e2e"/>
<path fill-rule="evenodd" clip-rule="evenodd" d="M14.3996 3.98324L10.9165 0.571283C10.5427 0.205094 10.0403 0 9.51696 0H4C2.34315 0 1 1.34315 1 3V13C1 14.6569 2.34315 16 4 16H12C13.3062 16 14.4175 15.1652 14.8293 14H15C15.5523 14 16 13.5523 16 13V10C16 9.44772 15.5523 9 15 9V5.41196C15 4.87438 14.7836 4.35943 14.3996 3.98324ZM14 9V5.64284H10.7148C9.88642 5.64284 9.21484 4.97127 9.21484 4.14284V1H4C2.89543 1 2 1.89543 2 3V13C2 14.1046 2.89543 15 4 15H12C12.7403 15 13.3866 14.5978 13.7324 14H8C7.44772 14 7 13.5523 7 13V10C7 9.44771 7.44772 9 8 9H14ZM13.6439 4.64284L10.2167 1.28564L10.2148 1.28379V4.14284C10.2148 4.41898 10.4387 4.64284 10.7148 4.64284H13.6439ZM9.21912 13V10.144H10.0071C10.2951 10.144 10.5098 10.22 10.6511 10.372C10.7951 10.5213 10.8671 10.74 10.8671 11.028C10.8671 11.22 10.8351 11.388 10.7711 11.532C10.7071 11.6733 10.6098 11.784 10.4791 11.864C10.3485 11.9413 10.1831 11.98 9.98312 11.98H9.73112V13H9.21912ZM7.99913 13.044C7.90846 13.044 7.83646 13.0173 7.78312 12.964C7.72979 12.908 7.70312 12.8293 7.70312 12.728C7.70312 12.6266 7.72846 12.5493 7.77913 12.496C7.82979 12.44 7.90312 12.412 7.99913 12.412C8.09246 12.412 8.16446 12.4386 8.21513 12.492C8.26579 12.5426 8.29113 12.6213 8.29113 12.728C8.29113 12.8293 8.26446 12.908 8.21112 12.964C8.16046 13.0173 8.08979 13.044 7.99913 13.044ZM11.1391 10.144V13H11.8351C12.0698 13 12.2671 12.944 12.4271 12.832C12.5871 12.7173 12.7085 12.5506 12.7911 12.332C12.8765 12.1106 12.9191 11.84 12.9191 11.52C12.9191 11.2213 12.8791 10.9706 12.7991 10.768C12.7191 10.5626 12.6005 10.408 12.4431 10.304C12.2885 10.1973 12.0991 10.144 11.8751 10.144H11.1391ZM13.2191 13V10.144H14.7991V10.62H13.7311V11.42H14.7311V11.896H13.7311V13H13.2191Z" fill="#2e2e2e"/>

</svg>
