<svg width="16" height="16" viewBox="0 0 16 16" fill="none" xmlns="http://www.w3.org/2000/svg">
<path fill-rule="evenodd" clip-rule="evenodd" d="M5.5 10.7505L7.37111 12.4258C7.63174 12.6083 8 12.4334 8 12.1258V4.8742C8 4.56658 7.63174 4.39168 7.37111 4.57416L5.5 6.24951H4.57895C3.70692 6.24951 3 6.92123 3 7.74983V9.25015C3 10.0788 3.70692 10.7505 4.57895 10.7505H5.5ZM7 6.24872L6.16706 6.99451C5.98367 7.15872 5.74616 7.24951 5.5 7.24951H4.57895C4.21046 7.24951 4 7.52103 4 7.74983V9.25015C4 9.47896 4.21046 9.75047 4.57895 9.75047H5.5C5.74616 9.75047 5.98368 9.84127 6.16707 10.0055L7 10.7513V6.24872Z" fill="#2e2e2e"/>
<path d="M11.3785 5.12066C11.169 4.94077 10.8534 4.96478 10.6735 5.17428C10.4936 5.38379 10.5176 5.69946 10.7271 5.87935C12.4243 7.33669 12.4243 9.66333 10.7271 11.1207C10.5176 11.3006 10.4936 11.6162 10.6735 11.8257C10.8534 12.0352 11.169 12.0592 11.3785 11.8794C13.5405 10.023 13.5405 6.97704 11.3785 5.12066Z" fill="#2e2e2e"/>
<path d="M9.82574 6.454C9.61623 6.2741 9.30056 6.29811 9.12066 6.50762C8.94077 6.71712 8.96478 7.03279 9.17428 7.21269C10.0139 7.93363 10.0139 9.06636 9.17428 9.7873C8.96478 9.9672 8.94077 10.2829 9.12066 10.4924C9.30056 10.7019 9.61623 10.7259 9.82574 10.546C11.1301 9.426 11.1301 7.57399 9.82574 6.454Z" fill="#2e2e2e"/>
<path fill-rule="evenodd" clip-rule="evenodd" d="M14.3996 3.98324L10.9165 0.571283C10.5427 0.205094 10.0403 0 9.51696 0H4C2.34315 0 1 1.34315 1 3V13C1 14.6569 2.34315 16 4 16H12C13.6569 16 15 14.6569 15 13V5.41196C15 4.87438 14.7836 4.35943 14.3996 3.98324ZM2 3V13C2 14.1046 2.89543 15 4 15H12C13.1046 15 14 14.1046 14 13V5.41196C14 5.14317 13.8918 4.8857 13.6998 4.6976L10.2167 1.28564C10.0298 1.10255 9.77861 1 9.51696 1H4C2.89543 1 2 1.89543 2 3Z" fill="#2e2e2e"/>
</svg>
