<svg width="16" height="16" viewBox="0 0 16 16" fill="none" xmlns="http://www.w3.org/2000/svg">
<path d="M4.6665 1H15.3335C15.5103 1 15.6798 1.07022 15.8048 1.19521C15.9298 1.32021 16 1.48973 16 1.6665V14.3335C16 14.5103 15.9298 14.6798 15.8048 14.8048C15.6798 14.9298 15.5103 15 15.3335 15H4.6665C4.48973 15 4.32021 14.9298 4.19521 14.8048C4.07022 14.6798 4 14.5103 4 14.3335V1.6665C4 1.48973 4.07022 1.32021 4.19521 1.19521C4.32021 1.07022 4.48973 1 4.6665 1Z" fill="#CA64EA"/>
<path d="M16 1.6665C16 1.57893 15.9827 1.49222 15.9492 1.41133C15.9157 1.33043 15.8666 1.25693 15.8046 1.19504C15.7427 1.13314 15.6691 1.08406 15.5882 1.05059C15.5073 1.01713 15.4206 0.999934 15.333 1H4.667C4.57943 0.999934 4.49271 1.01713 4.41179 1.05059C4.33087 1.08406 4.25733 1.13314 4.19539 1.19504C4.13345 1.25693 4.08431 1.33043 4.05078 1.41133C4.01726 1.49222 4 1.57893 4 1.6665V14.3335C4 14.5103 4.07022 14.6798 4.19521 14.8048C4.32021 14.9298 4.48973 15 4.6665 15H12.5L16 4.5V1.6665Z" fill="#CA64EA"/>
<path d="M16 4.5H12.5V8L14.25 9.5975L16 8V4.5Z" fill="#AE4BD5"/>
<path d="M16 8H12.5V11.5L14.25 13.1975L16 11.5V8Z" fill="#9332BF"/>
<path d="M12.5 11.5H16V14.3335C16 14.5103 15.9298 14.6798 15.8048 14.8048C15.6798 14.9298 15.5103 15 15.3335 15H12.5V11.5Z" fill="#7719AA"/>
<path opacity="0.1" d="M8.3335 3.5H4V13H8.3335C8.5101 12.9995 8.67933 12.9291 8.8042 12.8042C8.92908 12.6793 8.99947 12.5101 9 12.3335V4.1665C8.99947 3.9899 8.92908 3.82068 8.8042 3.6958C8.67933 3.57092 8.5101 3.50053 8.3335 3.5Z" fill="black"/>
<path opacity="0.2" d="M7.8335 4H4V13.5H7.8335C8.0101 13.4995 8.17933 13.4291 8.3042 13.3042C8.42908 13.1793 8.49947 13.0101 8.5 12.8335V4.6665C8.49947 4.4899 8.42908 4.32067 8.3042 4.1958C8.17933 4.07092 8.0101 4.00053 7.8335 4Z" fill="black"/>
<path opacity="0.3" d="M7.8335 4H4V12.5H7.8335C8.0101 12.4995 8.17933 12.4291 8.3042 12.3042C8.42908 12.1793 8.49947 12.0101 8.5 11.8335V4.6665C8.49947 4.4899 8.42908 4.32067 8.3042 4.1958C8.17933 4.07092 8.0101 4.00053 7.8335 4Z" fill="black"/>
<path opacity="0.2" d="M7.3335 4H4V12.5H7.3335C7.5101 12.4995 7.67933 12.4291 7.8042 12.3042C7.92908 12.1793 7.99947 12.0101 8 11.8335V4.6665C7.99947 4.4899 7.92908 4.32067 7.8042 4.1958C7.67933 4.07092 7.5101 4.00053 7.3335 4Z" fill="black"/>
<path d="M0.6665 4H7.3335C7.51027 4 7.67979 4.07022 7.80479 4.19521C7.92978 4.32021 8 4.48973 8 4.6665V11.3335C8 11.5103 7.92978 11.6798 7.80479 11.8048C7.67979 11.9298 7.51027 12 7.3335 12H0.6665C0.489733 12 0.320206 11.9298 0.195213 11.8048C0.0702203 11.6798 0 11.5103 0 11.3335L0 4.6665C0 4.48973 0.0702203 4.32021 0.195213 4.19521C0.320206 4.07022 0.489733 4 0.6665 4Z" fill="#7719AA"/>
<path d="M2.0005 5.5H3.0655L4.8935 8.866C4.98883 9.011 5.0605 9.12767 5.1085 9.216H5.1215C5.09604 8.99597 5.08602 8.77443 5.0915 8.553V5.5H5.9995V10.5H5.0025L3.096 7.185C3.02264 7.07581 2.95778 6.96114 2.902 6.842H2.885C2.90714 7.084 2.91632 7.32702 2.9125 7.57V10.5H2L2.0005 5.5Z" fill="white"/>
</svg>
