<svg width="16" height="16" viewBox="0 0 16 16" fill="none" xmlns="http://www.w3.org/2000/svg">
<path fill-rule="evenodd" clip-rule="evenodd" d="M15 14H14.8293C14.4175 15.1652 13.3062 16 12 16H4C2.34315 16 1 14.6569 1 13V3C1 1.34315 2.34315 0 4 0H9.51696C10.0403 0 10.5427 0.205094 10.9165 0.571283L14.3996 3.98324C14.7836 4.35943 15 4.87438 15 5.41196V9C15.5523 9 16 9.44772 16 10V13C16 13.5523 15.5523 14 15 14ZM2 13V3C2 1.89543 2.89543 1 4 1H9.21484V4.14284C9.21484 4.97127 9.88642 5.64284 10.7148 5.64284H14V9H10C9.44772 9 9 9.44771 9 10V13C9 13.5523 9.44771 14 10 14H13.7324C13.3866 14.5978 12.7403 15 12 15H4C2.89543 15 2 14.1046 2 13ZM13.6439 4.64284L10.2167 1.28564L10.2148 1.28379V4.14284C10.2148 4.41898 10.4387 4.64284 10.7148 4.64284H13.6439ZM11.5391 12.86C11.3765 12.7373 11.2591 12.5693 11.1871 12.356C11.1151 12.14 11.0791 11.892 11.0791 11.612C11.0791 11.2867 11.1218 11.012 11.2071 10.788C11.2925 10.564 11.4165 10.3947 11.5791 10.28C11.7445 10.1627 11.9445 10.104 12.1791 10.104C12.2885 10.104 12.3991 10.1187 12.5111 10.148C12.6258 10.1747 12.7405 10.22 12.8551 10.284L12.6911 10.728C12.6085 10.672 12.5285 10.6347 12.4511 10.616C12.3765 10.5947 12.3058 10.584 12.2391 10.584C12.0951 10.584 11.9751 10.6227 11.8791 10.7C11.7858 10.7747 11.7151 10.8867 11.6671 11.036C11.6218 11.1827 11.5991 11.3653 11.5991 11.584C11.5991 11.7707 11.6165 11.9373 11.6511 12.084C11.6885 12.2307 11.7458 12.3467 11.8231 12.432C11.9005 12.5173 12.0005 12.56 12.1231 12.56C12.1685 12.56 12.2138 12.556 12.2591 12.548C12.3071 12.5373 12.3525 12.5293 12.3951 12.524V11.856H12.0631V11.392H12.8591V12.892C12.7365 12.9427 12.6231 12.98 12.5191 13.004C12.4151 13.028 12.3045 13.04 12.1871 13.04C11.9178 13.04 11.7018 12.98 11.5391 12.86ZM9.99912 13.044C9.90846 13.044 9.83646 13.0173 9.78312 12.964C9.72979 12.908 9.70312 12.8293 9.70312 12.728C9.70312 12.6267 9.72846 12.5493 9.77913 12.496C9.82979 12.44 9.90312 12.412 9.99912 12.412C10.0925 12.412 10.1645 12.4387 10.2151 12.492C10.2658 12.5427 10.2911 12.6213 10.2911 12.728C10.2911 12.8293 10.2645 12.908 10.2111 12.964C10.1605 13.0173 10.0898 13.044 9.99912 13.044ZM13.2191 12.612V13H14.8191V12.524H13.7991L14.7711 10.532V10.144H13.2511V10.62H14.1991L13.2191 12.612Z" fill="#2e2e2e"/>

</svg>
