<svg width="16" height="16" viewBox="0 0 16 16" fill="none" xmlns="http://www.w3.org/2000/svg">
<path d="M8.09113 11.116L8.2249 11.832H7.77994L7.91113 11.112L7.93913 10.952C7.95246 10.8907 7.96446 10.828 7.97512 10.764C7.98579 10.6973 7.99513 10.6373 8.00313 10.584C8.01113 10.6373 8.01912 10.696 8.02712 10.76C8.03779 10.8213 8.04846 10.884 8.05912 10.948C8.07246 11.0093 8.08313 11.0653 8.09113 11.116Z" fill="#ebeef4"/>
<path d="M6.14313 11.46C6.07912 11.4893 6.00313 11.504 5.91512 11.504H5.73112V10.612H5.95512C6.07513 10.612 6.16979 10.6467 6.23913 10.716C6.31112 10.7827 6.34713 10.888 6.34713 11.032C6.34713 11.1493 6.32846 11.2427 6.29113 11.312C6.25646 11.3813 6.20713 11.4307 6.14313 11.46Z" fill="#ebeef4"/>
<path fill-rule="evenodd" clip-rule="evenodd" d="M15 14H14.8293C14.4175 15.1652 13.3062 16 12 16H4C2.34315 16 1 14.6569 1 13V3C1 1.34315 2.34315 0 4 0H9.51696C10.0403 0 10.5427 0.205094 10.9165 0.571283L14.3996 3.98324C14.7836 4.35943 15 4.87438 15 5.41196V9C15.5523 9 16 9.44772 16 10V13C16 13.5523 15.5523 14 15 14ZM2 13V3C2 1.89543 2.89543 1 4 1H9.21484V4.14284C9.21484 4.97127 9.88642 5.64284 10.7148 5.64284H14V9H4C3.44772 9 3 9.44771 3 10V13C3 13.5523 3.44772 14 4 14H13.7324C13.3866 14.5978 12.7403 15 12 15H4C2.89543 15 2 14.1046 2 13ZM13.6439 4.64284L10.2167 1.28564L10.2148 1.28379V4.14284C10.2148 4.41898 10.4387 4.64284 10.7148 4.64284H13.6439ZM12.2471 13.06C12.0151 13.06 11.8165 13.0013 11.6511 12.884C11.4858 12.7667 11.3591 12.5973 11.2711 12.376C11.1831 12.1547 11.1391 11.888 11.1391 11.576C11.1391 11.3627 11.1631 11.1667 11.2111 10.988C11.2618 10.8067 11.3351 10.6493 11.4311 10.516C11.5271 10.3827 11.6445 10.28 11.7831 10.208C11.9218 10.1333 12.0805 10.096 12.2591 10.096C12.3765 10.096 12.4911 10.112 12.6031 10.144C12.7151 10.1733 12.8205 10.2187 12.9191 10.28L12.7631 10.708C12.6938 10.6707 12.6205 10.64 12.5431 10.616C12.4658 10.5893 12.3845 10.576 12.2991 10.576C12.1951 10.576 12.1045 10.6013 12.0271 10.652C11.9498 10.7027 11.8845 10.7733 11.8311 10.864C11.7778 10.9547 11.7378 11.0613 11.7111 11.184C11.6845 11.304 11.6711 11.436 11.6711 11.58C11.6711 11.8013 11.6978 11.9867 11.7511 12.136C11.8071 12.2853 11.8845 12.3973 11.9831 12.472C12.0818 12.544 12.1965 12.58 12.3271 12.58C12.4178 12.58 12.5018 12.5667 12.5791 12.54C12.6591 12.5133 12.7378 12.4787 12.8151 12.436V12.92C12.7325 12.9653 12.6445 13 12.5511 13.024C12.4605 13.048 12.3591 13.06 12.2471 13.06ZM7.03912 13L7.62713 10.132H8.35913L8.95913 13H8.44312L8.31234 12.3H7.69467L7.56712 13H7.03912ZM5.21912 10.144V13H5.73112V11.98H5.98312C6.18313 11.98 6.34846 11.9413 6.47913 11.864C6.60979 11.784 6.70713 11.6733 6.77112 11.532C6.83512 11.388 6.86713 11.22 6.86713 11.028C6.86713 10.74 6.79513 10.5213 6.65112 10.372C6.50979 10.22 6.29513 10.144 6.00712 10.144H5.21912ZM3.78312 12.964C3.83646 13.0173 3.90846 13.044 3.99913 13.044C4.08979 13.044 4.16046 13.0173 4.21112 12.964C4.26446 12.908 4.29112 12.8293 4.29112 12.728C4.29112 12.6213 4.26579 12.5427 4.21513 12.492C4.16446 12.4387 4.09246 12.412 3.99913 12.412C3.90313 12.412 3.82979 12.44 3.77912 12.496C3.72846 12.5493 3.70312 12.6267 3.70312 12.728C3.70312 12.8293 3.72979 12.908 3.78312 12.964ZM9.74312 10.62V13H10.2551V10.62H10.8991V10.144H9.09912V10.62H9.74312ZM13.1391 10.144V13H13.6511V11.772H14.3471V13H14.8591V10.144H14.3471V11.276H13.6511V10.144H13.1391Z" fill="#ebeef4"/>

</svg>
