<svg width="16" height="16" viewBox="0 0 16 16" fill="none" xmlns="http://www.w3.org/2000/svg">
<path d="M9 1C7.14515 1.00541 5.36781 1.74464 4.05623 3.05623C2.74464 4.36781 2.00541 6.14515 2 8L10.8685 9.8685L9 1Z" fill="#ED6C47"/>
<path d="M9 1C10.8549 1.00541 12.6322 1.74464 13.9438 3.05623C15.2554 4.36781 15.9946 6.14515 16 8L12.5 10.379L9 8V1Z" fill="#FF8F6B"/>
<path d="M9 15C10.8549 14.9946 12.6322 14.2554 13.9438 12.9438C15.2554 11.6322 15.9946 9.85485 16 8H2C2.00541 9.85485 2.74464 11.6322 4.05623 12.9438C5.36781 14.2554 7.14515 14.9946 9 15Z" fill="#D35230"/>
<path opacity="0.1" d="M8.33285 3.5H3.65285C2.5099 4.84667 1.92197 6.57767 2.00833 8.34188C2.09468 10.1061 2.84885 11.7714 4.11785 13H8.33285C8.50955 12.9996 8.67889 12.9293 8.80388 12.8044C8.92887 12.6795 8.99933 12.5102 8.99985 12.3335V4.1665C8.99933 3.98981 8.92887 3.82051 8.80388 3.69562C8.67889 3.57073 8.50955 3.5004 8.33285 3.5Z" fill="black"/>
<path opacity="0.2" d="M7.8327 4H3.2697C2.23904 5.46238 1.81175 7.26578 2.07668 9.03514C2.34162 10.8045 3.2784 12.4036 4.6922 13.5H7.8332C8.0098 13.4995 8.17902 13.4291 8.3039 13.3042C8.42878 13.1793 8.49917 13.0101 8.4997 12.8335V4.6665C8.49917 4.48981 8.42871 4.32051 8.30372 4.19562C8.17874 4.07073 8.00939 4.0004 7.8327 4Z" fill="black"/>
<path opacity="0.2" d="M7.83264 4H3.26964C2.38186 5.2587 1.93771 6.7768 2.00704 8.31552C2.07638 9.85424 2.65526 11.3262 3.65264 12.5H7.83314C8.00974 12.4995 8.17896 12.4291 8.30384 12.3042C8.42872 12.1793 8.49911 12.0101 8.49964 11.8335V4.6665C8.49911 4.48981 8.42865 4.32051 8.30366 4.19562C8.17868 4.07073 8.00933 4.0004 7.83264 4Z" fill="black"/>
<path opacity="0.2" d="M7.33264 4H3.26964C2.38186 5.2587 1.93771 6.7768 2.00704 8.31552C2.07638 9.85424 2.65526 11.3262 3.65264 12.5H7.33314C7.50974 12.4995 7.67896 12.4291 7.80384 12.3042C7.92872 12.1793 7.99911 12.0101 7.99964 11.8335V4.6665C7.99911 4.48981 7.92865 4.32051 7.80366 4.19562C7.67868 4.07073 7.50933 4.0004 7.33264 4Z" fill="black"/>
<path d="M0.6665 4H7.3335C7.51027 4 7.67979 4.07022 7.80479 4.19521C7.92978 4.32021 8 4.48973 8 4.6665V11.3335C8 11.5103 7.92978 11.6798 7.80479 11.8048C7.67979 11.9298 7.51027 12 7.3335 12H0.6665C0.489733 12 0.320206 11.9298 0.195213 11.8048C0.0702203 11.6798 0 11.5103 0 11.3335L0 4.6665C0 4.48973 0.0702203 4.32021 0.195213 4.19521C0.320206 4.07022 0.489733 4 0.6665 4Z" fill="#C43E1C"/>
<path d="M3.9985 5.50025C4.49084 5.4671 4.97897 5.60973 5.376 5.90275C5.53884 6.04805 5.6665 6.22849 5.74931 6.43041C5.83212 6.63233 5.86792 6.85045 5.854 7.06825C5.85946 7.35104 5.77681 7.62853 5.6175 7.86225C5.45534 8.12056 5.22198 8.32649 4.9455 8.45525C4.62941 8.60201 4.28393 8.67453 3.9355 8.66725H2.9805V10.5002H2V5.50025H3.9985ZM2.98 7.84175H3.8235C4.09094 7.86141 4.35633 7.78244 4.5695 7.61975C4.6542 7.56526 4.72243 7.48869 4.76684 7.39829C4.81124 7.30789 4.83014 7.20709 4.8215 7.10675C4.8215 6.55375 4.49933 6.27725 3.855 6.27725H2.98V7.84175Z" fill="#F9F7F7"/>
</svg>
