<svg width="16" height="16" viewBox="0 0 16 16" fill="none" xmlns="http://www.w3.org/2000/svg">
<path fill-rule="evenodd" clip-rule="evenodd" d="M9.72908 7.24485C10.6025 5.35888 10.2616 3.04916 8.70646 1.49394C6.71473 -0.497859 3.48551 -0.497859 1.49379 1.49394C-0.497931 3.48574 -0.497931 6.71509 1.49379 8.70689C3.05092 10.2641 5.36443 10.6039 7.25164 9.72622L8.51188 10.9865H9.75896L9.75896 12.2264H10.9985V13.466L12.2384 13.466V14.7131L13.4586 15.9334C13.5013 15.9761 13.5592 16.0001 13.6196 16.0001H15.7723C15.8981 16.0001 16 15.8982 16 15.7724V13.6103C16 13.5499 15.976 13.492 15.9333 13.4493L9.72908 7.24485ZM4.65033 3.07231C5.08602 3.50801 5.08602 4.21443 4.65033 4.65014C4.21464 5.08585 3.50825 5.08585 3.07256 4.65014C2.63687 4.21443 2.63687 3.50801 3.07256 3.07231C3.50825 2.6366 4.21464 2.6366 4.65033 3.07231Z" fill="#131619"/>
</svg>
