<svg width="16" height="16" viewBox="0 0 16 16" fill="none" xmlns="http://www.w3.org/2000/svg">
<path d="M4.65063 4.65003C5.08632 4.21433 5.08632 3.50791 4.65063 3.0722C4.21494 2.6365 3.50855 2.6365 3.07286 3.0722C2.63717 3.50791 2.63717 4.21433 3.07286 4.65003C3.50855 5.08574 4.21494 5.08574 4.65063 4.65003Z" fill="#ffffff"/>
<path fill-rule="evenodd" clip-rule="evenodd" d="M12.2384 13.4659V14.713L13.4586 15.9333C13.5013 15.976 13.5592 16 13.6196 16H15.7723C15.8981 16 16 15.8981 16 15.7723V13.6102C16 13.5499 15.976 13.4919 15.9333 13.4492L9.72908 7.24476C10.6025 5.35878 10.2616 3.04907 8.70646 1.49385C6.71473 -0.49795 3.48551 -0.49795 1.49379 1.49385C-0.497931 3.48565 -0.497931 6.715 1.49379 8.7068C3.05092 10.264 5.36443 10.6038 7.25164 9.72613L8.51188 10.9864H9.75896L9.75896 12.2263H10.9985V13.4659L12.2384 13.4659ZM8.82166 6.82452L8.52824 7.45811L15 13.9301V15H13.9395L13.2384 14.2988V12.4659L11.9985 12.4659V11.2263H10.759L10.759 9.98641H8.9261L7.46419 8.52444L6.82997 8.81938C5.31138 9.52559 3.45162 9.25047 2.20091 7.99971C0.599696 6.39843 0.599696 3.80222 2.20091 2.20094C3.80211 0.599686 6.39814 0.599685 7.99934 2.20094C9.24847 3.45013 9.5245 5.30687 8.82166 6.82452Z" fill="#ffffff"/>
</svg>
