<svg width="16" height="16" viewBox="0 0 16 16" fill="none" xmlns="http://www.w3.org/2000/svg">
<path fill-rule="evenodd" clip-rule="evenodd" d="M2.75 1.5C2.05964 1.5 1.5 2.05964 1.5 2.75V9.25C1.5 9.44908 1.54654 9.63729 1.62933 9.80435C1.53566 9.90104 1.4607 10.0175 1.41143 10.1489L0.15976 13.4867C-0.0241074 13.977 0.338351 14.5 0.862006 14.5H15.1405C15.6642 14.5 16.0266 13.977 15.8428 13.4867L14.5911 10.1489C14.5415 10.0167 14.466 9.89966 14.3715 9.80263C14.4538 9.63601 14.5 9.4484 14.5 9.25V2.75C14.5 2.05964 13.9404 1.5 13.25 1.5H2.75ZM13.25 9.5C13.3881 9.5 13.5 9.38807 13.5 9.25V2.75C13.5 2.61193 13.3881 2.5 13.25 2.5H2.75C2.61193 2.5 2.5 2.61193 2.5 2.75V9.25C2.5 9.38807 2.61193 9.5 2.75 9.5H13.25ZM2.34776 10.5L1.22276 13.5H6C6 13.2239 6.22386 13 6.5 13H9.5C9.77614 13 10 13.2239 10 13.5H14.7798L13.6548 10.5H2.34776Z" fill="#ffffff"/>
</svg>
