<svg width="16" height="16" viewBox="0 0 16 16" fill="none" xmlns="http://www.w3.org/2000/svg">
<path fill-rule="evenodd" clip-rule="evenodd" d="M2.75 1.5C2.05964 1.5 1.5 2.05964 1.5 2.75V9.25C1.5 9.44855 1.54629 9.63629 1.62868 9.80302C1.5344 9.89997 1.45897 10.0169 1.40947 10.1489L0.157807 13.4867C-0.0260606 13.977 0.336398 14.5 0.860053 14.5H15.1386C15.6622 14.5 16.0247 13.977 15.8408 13.4867L14.5891 10.1489C14.5398 10.0173 14.4647 9.90073 14.3709 9.80397C14.4535 9.63701 14.5 9.44893 14.5 9.25V2.75C14.5 2.05964 13.9404 1.5 13.25 1.5H2.75ZM13.25 9.5H2.75C2.61193 9.5 2.5 9.38807 2.5 9.25V2.75C2.5 2.61193 2.61193 2.5 2.75 2.5H13.25C13.3881 2.5 13.5 2.61193 13.5 2.75V9.25C13.5 9.38807 13.3881 9.5 13.25 9.5ZM9.5 14C9.77614 14 10 13.7761 10 13.5H6C6 13.7761 6.22386 14 6.5 14H9.5Z" fill="#131619"/>
</svg>
