<svg width="200" height="200" viewBox="0 0 200 200" fill="none" xmlns="http://www.w3.org/2000/svg">
<g clip-path="url(#clip0_567_90096)">
<path opacity="0.25" d="M155.231 125.852C147.49 156.546 213.05 151.137 197.326 173.909C181.602 196.681 158.028 185.888 101.632 180.118C45.2366 174.348 -0.263331 221.896 7.36537 180.118C14.9941 138.34 40.8724 142.735 20.5567 117.62C0.241033 92.5051 -13.1405 2.00011 20.5567 2C47.7333 1.99991 96.1514 70.0283 158.278 58.8036C220.405 47.5789 162.972 95.1594 155.231 125.852Z" fill="#A8CCF8"/>
</g>
<path d="M22.2098 79.2191C21.842 77.773 22.3001 76.2419 23.4017 75.2355L67.4133 35.0256C68.2119 34.296 69.3221 34.0137 70.3722 34.2731L128.247 48.5692C129.695 48.927 130.829 50.0532 131.197 51.4993L147.315 114.872C147.866 117.037 146.557 119.239 144.392 119.789L43.2455 145.515C41.0803 146.066 38.8786 144.757 38.3279 142.592L22.2098 79.2191Z" fill="#648CFE"/>
<path d="M146.476 111.571L130.928 50.4423C130.771 49.8226 129.991 49.622 129.554 50.0889L86.9871 95.578C86.1837 96.4366 86.5353 97.8383 87.6488 98.216L141.256 116.399C144.295 117.43 147.267 114.681 146.476 111.571Z" fill="#A8CCF8"/>
<path d="M37.4884 139.291L21.9409 78.1619C21.7833 77.5422 22.373 76.9932 22.9798 77.1946L82.1073 96.8189C83.2233 97.1893 83.5841 98.5886 82.7863 99.4524L44.3805 141.038C42.2033 143.396 38.2794 142.401 37.4884 139.291Z" fill="#A8CCF8"/>
<path d="M143.379 106.174L84.6431 81.9198L78.5221 82.9849L142.529 108.763L143.379 106.174Z" fill="#2538BF"/>
<path d="M36.6779 134.359L80.017 81.1296L81.4024 80.7772L84.6431 81.9197L38.8285 134.754L36.6779 134.359Z" fill="#2538BF"/>
<path d="M43.2451 145.515L144.392 119.79C146.557 119.239 147.866 117.038 147.315 114.872L145.423 107.433C145.29 106.91 144.906 106.488 144.398 106.307L83.4576 84.5978C82.2196 84.1568 80.8378 84.5082 79.961 85.4871L36.7983 133.674C36.4386 134.076 36.3025 134.63 36.4354 135.153L38.3276 142.592C38.8783 144.757 41.0799 146.066 43.2451 145.515Z" fill="#648CFE"/>
<path d="M121.449 169.446C121.238 169.281 121.273 168.955 121.513 168.835L129.697 164.743L163.037 170.541C163.037 170.541 162.637 173.222 160.863 174.89C157.532 178.023 150.716 179.239 148.542 179.964C146.437 179.577 144.193 177.789 144.193 177.789C139.843 177.166 132.397 176.459 126.073 172.716C124.474 171.769 122.36 170.156 121.449 169.446Z" fill="#2538BF"/>
<path d="M142.744 158.946L152.891 159.671L160.138 151.698C160.138 151.698 161.888 153.075 162.313 156.047C162.517 157.474 163.616 162.353 163.762 165.469C163.882 168.015 163.038 170.543 163.038 170.543L148.542 175.616L142.744 158.946Z" fill="#C28030"/>
<path d="M144.772 144.276C144.948 143.936 145.351 143.789 145.704 143.936C147.867 144.838 155.133 147.956 159.564 150.933C163.475 153.562 159.304 162.72 158.748 163.894C158.714 163.965 158.738 164.046 158.805 164.086C159.759 164.648 166.14 168.635 162.277 172.547C158.369 176.505 150.201 179.443 148.698 179.96C148.542 180.014 148.377 180.012 148.222 179.955C146.828 179.438 139.561 176.687 135.067 173.954C130.868 171.4 125.125 166.45 123.414 164.949C123.196 164.758 123.274 164.401 123.55 164.315C125.578 163.681 131.96 161.496 135.567 158.107C139.27 154.627 143.599 146.538 144.772 144.276Z" fill="#FFBF39"/>
<defs>
<clipPath id="clip0_567_90096">
<rect width="200" height="195.261" fill="white" transform="translate(0 2)"/>
</clipPath>
</defs>
</svg>
