<svg width="20" height="20" viewBox="0 0 20 20" fill="none" xmlns="http://www.w3.org/2000/svg">
<path d="M10.6243 1.72772C11.2225 1.01665 12.3467 1.11499 12.8118 1.91905L18.5693 11.8722C19.0344 12.6763 18.5576 13.6972 17.6416 13.8587L6.89455 15.7533L3.60685 10.0697L10.6243 1.72772Z" fill="#6E7680"/>
<path d="M2.65773 10.6166L5.94543 16.3001L5.20816 16.725C4.56702 17.0944 3.7472 16.8752 3.37704 16.2353L1.42981 12.8691C1.05965 12.2292 1.27932 11.4109 1.92046 11.0415L2.65773 10.6166Z" fill="#6E7680"/>
<path d="M7.47368 16.6826L7.44256 16.7005L8.96412 19.3309C9.33429 19.9708 10.1541 20.19 10.7952 19.8206L11.3207 19.5178C11.9618 19.1483 12.1815 18.3301 11.8114 17.6902L10.881 16.0819L7.47368 16.6826Z" fill="#6E7680"/>
</svg>
