<svg width="16" height="16" viewBox="0 0 16 16" fill="none" xmlns="http://www.w3.org/2000/svg">
<path fill-rule="evenodd" clip-rule="evenodd" d="M11.5 3.5C11.5 5.433 9.933 7 8 7C6.067 7 4.5 5.433 4.5 3.5C4.5 1.567 6.067 0 8 0C9.933 0 11.5 1.567 11.5 3.5ZM10.5 3.5C10.5 4.88071 9.38071 6 8 6C6.61929 6 5.5 4.88071 5.5 3.5C5.5 2.11929 6.61929 1 8 1C9.38071 1 10.5 2.11929 10.5 3.5Z" fill="#ffffff"/>
<path fill-rule="evenodd" clip-rule="evenodd" d="M1 13.2C1 10.8804 3.8 9 8 9C12.2 9 15 10.8804 15 13.2C15 14.7464 13.7464 16 12.2 16H3.8C2.2536 16 1 14.7464 1 13.2ZM2 13.2C2 12.4872 2.4237 11.718 3.45222 11.0799C4.48176 10.4411 6.03713 10 8 10C9.96287 10 11.5182 10.4411 12.5478 11.0799C13.5763 11.718 14 12.4872 14 13.2C14 14.1941 13.1941 15 12.2 15H3.8C2.80589 15 2 14.1941 2 13.2Z" fill="#ffffff"/>
</svg>
