<svg width="16" height="16" viewBox="0 0 16 16" fill="none" xmlns="http://www.w3.org/2000/svg">
<mask id="mask0_716_3311" style="mask-type:alpha" maskUnits="userSpaceOnUse" x="0" y="0" width="16" height="16">
<path fill-rule="evenodd" clip-rule="evenodd" d="M8 16C3.58172 16 0 12.4183 0 8C0 3.58172 3.58172 0 8 0C12.4183 0 16 3.58172 16 8C16 12.4183 12.4183 16 8 16ZM1.28988 10C1.10128 9.36629 1 8.69497 1 8C1 7.30503 1.10128 6.63371 1.28988 6H4.61581C4.54025 6.64637 4.5 7.32091 4.5 8.01083C4.5 8.69356 4.53942 9.36069 4.61346 10H1.28988ZM1.67363 11C2.53757 12.8186 4.16259 14.2056 6.1371 14.7494C5.52427 13.8539 5.03958 12.5375 4.76124 11H1.67363ZM5.77869 11C5.94208 11.84 6.16995 12.5937 6.44244 13.2215C6.72732 13.8778 7.04109 14.3506 7.33958 14.6448C7.63459 14.9355 7.85672 15 8 15C8.14328 15 8.36541 14.9355 8.66042 14.6448C8.95891 14.3506 9.27268 13.8778 9.55756 13.2215C9.83005 12.5937 10.0579 11.84 10.2213 11H5.77869ZM11.2388 11C10.9604 12.5375 10.4757 13.8539 9.8629 14.7494C11.8374 14.2056 13.4624 12.8186 14.3264 11H11.2388ZM14.7101 10H11.3865C11.4606 9.36069 11.5 8.69356 11.5 8.01083C11.5 7.32091 11.4597 6.64637 11.3842 6H14.7101C14.8987 6.63371 15 7.30503 15 8C15 8.69497 14.8987 9.36629 14.7101 10ZM10.3794 10H5.62057C5.54249 9.36746 5.5 8.69981 5.5 8.01083C5.5 7.31464 5.54338 6.63956 5.62305 6H10.377C10.4566 6.63956 10.5 7.31464 10.5 8.01083C10.5 8.69981 10.4575 9.36746 10.3794 10ZM4.76458 5H1.67363C2.53833 3.17977 4.16546 1.79192 6.14233 1.24917C5.52948 2.14527 5.04424 3.46279 4.76458 5ZM6.44298 2.78808C6.17214 3.41438 5.94541 4.16484 5.7822 5H10.2178C10.0546 4.16484 9.82786 3.41438 9.55702 2.78808C9.27186 2.12866 8.95768 1.65299 8.65867 1.35686C8.36292 1.06395 8.14128 1 8 1C7.85872 1 7.63708 1.06395 7.34133 1.35686C7.04232 1.65299 6.72814 2.12866 6.44298 2.78808ZM11.2354 5H14.3264C13.4617 3.17977 11.8345 1.79192 9.85767 1.24917C10.4705 2.14527 10.9558 3.46279 11.2354 5Z" fill="#000001"/>
</mask>
<g mask="url(#mask0_716_3311)">
<rect width="16" height="16" fill="#131619"/>
</g>
</svg>
