<svg width="25" height="24" viewBox="0 0 25 24" fill="none" xmlns="http://www.w3.org/2000/svg">
<mask id="mask0_348_9851" style="mask-type:alpha" maskUnits="userSpaceOnUse" x="0" y="0" width="25" height="24">
<path d="M8.87744 1.5C8.87744 0.671573 9.54901 0 10.3774 0H14.8774C15.7059 0 16.3774 0.671573 16.3774 1.5V6C16.3774 6.82843 15.7059 7.5 14.8774 7.5H13.3774V11.25H20.8774C22.1201 11.25 23.1274 12.2574 23.1274 13.5V18C23.9559 18 24.6274 18.6716 24.6274 19.5V22.5C24.6274 23.3284 23.9559 24 23.1274 24H20.1274C19.299 24 18.6274 23.3284 18.6274 22.5V19.5C18.6274 18.6716 19.299 18 20.1274 18H21.6274V13.5C21.6274 13.0858 21.2917 12.75 20.8774 12.75H13.3774V18H14.1274C14.9559 18 15.6274 18.6716 15.6274 19.5V22.5C15.6274 23.3284 14.9559 24 14.1274 24H11.1274C10.299 24 9.62744 23.3284 9.62744 22.5V19.5C9.62744 18.6716 10.299 18 11.1274 18H11.8774V12.75H4.37744C3.96323 12.75 3.62744 13.0858 3.62744 13.5V18H5.12744C5.95587 18 6.62744 18.6716 6.62744 19.5V22.5C6.62744 23.3284 5.95587 24 5.12744 24H2.12744C1.29901 24 0.627441 23.3284 0.627441 22.5V19.5C0.627441 18.6716 1.29901 18 2.12744 18V13.5C2.12744 12.2574 3.1348 11.25 4.37744 11.25H11.8774V7.5H10.3774C9.54901 7.5 8.87744 6.82843 8.87744 6V1.5Z" fill="#000001"/>
</mask>
<g mask="url(#mask0_348_9851)">
<rect width="24" height="24" transform="translate(0.627441)" fill="#6E7680"/>
</g>
</svg>
