<svg width="172" height="169" viewBox="0 0 172 169" fill="none" xmlns="http://www.w3.org/2000/svg">
<g clip-path="url(#clip0_761_65178)">
<path opacity="0.25" d="M133.559 106.561C126.899 132.969 183.305 128.315 169.777 147.908C156.248 167.501 135.966 158.215 87.4433 153.25C38.9211 148.286 -0.226567 189.196 6.33708 153.25C12.9007 117.305 35.1661 121.087 17.6868 99.4783C0.207382 77.8695 -11.3059 9.28649e-05 17.6868 0C41.0692 -7.48949e-05 82.7276 58.5308 136.181 48.8732C189.634 39.2156 140.219 80.1532 133.559 106.561Z" fill="#A8CCF8"/>
</g>
<path fill-rule="evenodd" clip-rule="evenodd" d="M155.962 28.0639C160.445 28.6163 163.632 32.6986 163.08 37.1821L159.879 63.1598L159.879 63.1598L155.71 97.0006C155.157 101.484 151.075 104.671 146.592 104.118L74.341 95.2168C69.8575 94.6644 66.6708 90.582 67.2231 86.0986L73.2695 37.0231C73.8219 32.5396 77.9043 29.3528 82.3877 29.9052L117.356 34.2136L123.902 27.4104C125.687 25.5551 128.241 24.6485 130.796 24.9633L155.962 28.0639Z" fill="#A8CCF8"/>
<path d="M146.044 37.4499L80.7017 28.7381C85.3736 32.0452 85.9459 38.7609 81.9008 42.8108L78.3515 46.3643L138.864 54.4321C141.908 54.838 145 53.7687 147.17 51.5957C151.215 47.5459 150.716 40.757 146.044 37.4499Z" fill="#F0F2FF"/>
<path d="M82.2031 4.29476L147.546 13.0066C141.088 19.3081 140.225 29.391 145.519 36.6978L146.234 37.6853L83.2351 29.3659C80.5217 29.0075 78.1242 27.4204 76.7345 25.0625C73.3444 19.3101 74.3208 11.9863 79.0997 7.32313L82.2031 4.29476Z" fill="url(#paint0_linear_761_65178)"/>
<path d="M160.889 54.0352C161.132 52.5704 160.106 51.1982 158.632 51.0167L75.9212 40.8262C74.4475 40.6446 73.1192 41.7267 72.9992 43.2066L68.3502 100.515C68.237 101.91 69.2442 103.146 70.6336 103.318L148.594 112.923C149.983 113.094 151.26 112.139 151.489 110.758L160.889 54.0352Z" fill="#4793F1"/>
<path d="M163.435 56.3833C163.7 54.81 162.599 53.3335 161.016 53.1384L72.7223 42.2601C71.1388 42.065 69.7124 43.2302 69.5876 44.8208L65.0935 102.074C64.9762 103.568 66.0558 104.89 67.5432 105.073L150.794 115.33C152.281 115.513 153.649 114.493 153.898 113.015L163.435 56.3833Z" fill="#E7F1FD"/>
<path fill-rule="evenodd" clip-rule="evenodd" d="M30.1348 66.8821C25.6883 67.679 22.7297 71.9296 23.5266 76.3761L28.1441 102.14L28.1441 102.14L34.1592 135.702C34.9561 140.148 39.2068 143.107 43.6533 142.31L115.308 129.468C119.755 128.671 122.714 124.42 121.917 119.974L113.194 71.3026C112.397 66.856 108.146 63.8975 103.7 64.6944L69.0193 70.9099L62.1114 64.475C60.2275 62.7202 57.6274 61.9547 55.0933 62.4089L30.1348 66.8821Z" fill="#648CFE"/>
<path d="M103.387 66.3596L67.0594 72.9198L98.9007 77.5191L105.623 76.4577L103.387 66.3596Z" fill="#2538BF"/>
<path d="M32.067 79.1195C32.067 79.1195 83.3851 68.3629 101.731 70.0895C104.54 85.7603 114.497 129.762 114.497 129.762L44.4465 142.317L32.067 79.1195Z" fill="url(#paint1_linear_761_65178)"/>
<path d="M26.6358 93.0841C26.3133 91.6347 27.2626 90.2085 28.7241 89.9465L110.754 75.2449C112.215 74.983 113.601 75.9908 113.802 77.4619L121.58 134.43C121.769 135.817 120.831 137.106 119.453 137.353L42.1357 151.211C40.7578 151.457 39.4303 150.574 39.1262 149.208L26.6358 93.0841Z" fill="#2538BF"/>
<path d="M24.222 95.5681C23.8714 94.0116 24.8898 92.477 26.4603 92.1955L114.026 76.5017C115.597 76.2202 117.085 77.3056 117.296 78.887L124.917 135.809C125.116 137.294 124.11 138.673 122.635 138.937L40.0707 153.735C38.5955 153.999 37.1736 153.055 36.8442 151.593L24.222 95.5681Z" fill="#A8CCF8"/>
<defs>
<linearGradient id="paint0_linear_761_65178" x1="79.3986" y1="14.6888" x2="144.85" y2="41.577" gradientUnits="userSpaceOnUse">
<stop stop-color="#F5F5F5"/>
<stop offset="1" stop-color="white"/>
</linearGradient>
<linearGradient id="paint1_linear_761_65178" x1="33.3433" y1="84.2821" x2="110.865" y2="124.114" gradientUnits="userSpaceOnUse">
<stop stop-color="white"/>
<stop offset="1" stop-color="#E2DFDF"/>
</linearGradient>
<clipPath id="clip0_761_65178">
<rect width="172" height="169" fill="white"/>
</clipPath>
</defs>
</svg>
