<svg width="16" height="16" viewBox="0 0 16 16" fill="none" xmlns="http://www.w3.org/2000/svg">
<mask id="mask0_716_3316" style="mask-type:alpha" maskUnits="userSpaceOnUse" x="0" y="0" width="16" height="16">
<path d="M5.5 1C5.5 0.447715 5.94772 0 6.5 0H9.5C10.0523 0 10.5 0.447715 10.5 1V4C10.5 4.55228 10.0523 5 9.5 5H8.5V7.5H13.5C14.3284 7.5 15 8.17157 15 9V12C15.5523 12 16 12.4477 16 13V15C16 15.5523 15.5523 16 15 16H13C12.4477 16 12 15.5523 12 15V13C12 12.4477 12.4477 12 13 12H14V9C14 8.72386 13.7761 8.5 13.5 8.5H8.5V12H9C9.55228 12 10 12.4477 10 13V15C10 15.5523 9.55228 16 9 16H7C6.44772 16 6 15.5523 6 15V13C6 12.4477 6.44772 12 7 12H7.5V8.5H2.5C2.22386 8.5 2 8.72386 2 9V12H3C3.55228 12 4 12.4477 4 13V15C4 15.5523 3.55228 16 3 16H1C0.447715 16 0 15.5523 0 15V13C0 12.4477 0.447715 12 1 12V9C1 8.17157 1.67157 7.5 2.5 7.5H7.5V5H6.5C5.94772 5 5.5 4.55228 5.5 4V1Z" fill="#000001"/>
</mask>
<g mask="url(#mask0_716_3316)">
<rect width="16" height="16" fill="#131619"/>
</g>
</svg>
