<svg width="262" height="137" viewBox="0 0 262 137" fill="none" xmlns="http://www.w3.org/2000/svg">
<path opacity="0.15" d="M42.6377 125.231C104.478 119.473 109.192 104.906 174.83 129.479C240.468 154.052 283.627 112.66 248.687 87.7039C213.747 62.7473 235.521 31.5577 191.355 24.6143C148.18 17.8269 131.594 52.0393 58.9113 67.1915C-13.7718 82.3437 -19.2022 130.99 42.6377 125.231Z" fill="#C4C4C4"/>
<path d="M167.627 96.1232H233.884C234.588 96.1232 234.745 97.1115 234.076 97.3293L136.628 129.043L142.61 113.932L167.627 96.1232Z" fill="url(#paint0_linear_763_68438)"/>
<path d="M90.9456 59.426L97.9556 74.8289C98.3281 75.6475 99.1157 76.1993 100.012 76.2699L131.488 78.7488C132.206 78.8054 132.821 78.2373 132.821 77.5161V51.8707L90.9456 59.426Z" fill="#0E72ED"/>
<path d="M178.504 57.807V73.1428C178.504 74.5086 177.397 75.6158 176.031 75.6158H134.058C133.375 75.6158 132.822 75.0622 132.822 74.3793V51.8707L178.504 57.807Z" fill="#4793F1"/>
<path d="M90.9456 59.4259V109.577C90.9456 110.579 91.5506 111.482 92.4776 111.864L135.54 129.582V73.4572L90.9456 59.4259Z" fill="#4793F1"/>
<path d="M90.9456 59.4259V84.7699C90.9456 85.7635 91.5401 86.6606 92.4552 87.0476L123.239 100.068C123.757 100.287 124.356 100.127 124.671 99.6596C126.148 97.4684 130.152 90.8449 131.19 82.0918C131.9 76.0995 135.54 73.4572 135.54 73.4572L90.9456 59.4259Z" fill="#2538BF"/>
<path d="M178.504 57.8071V109.601C178.504 110.591 177.913 111.486 177.002 111.875L135.541 129.582V73.4573L178.504 57.8071Z" fill="#0E72ED"/>
<path d="M178.504 57.8071V87.5609C178.504 87.8374 178.325 88.0789 178.059 88.1537C176.34 88.6371 169.953 90.4193 164.364 91.8058C159.02 93.1315 151.124 97.7139 148.438 99.3306C147.902 99.6536 147.218 99.5318 146.872 99.0101C145.584 97.0724 142.644 91.9726 140.979 83.7109C139.787 77.7944 136.629 73.4573 136.629 73.4573L178.504 57.8071Z" fill="#2538BF"/>
<path d="M90.9459 59.4259L135.541 73.4572C135.541 73.4572 130.81 76.7467 129.015 82.0918C126.637 89.1705 122.596 92.5351 121.618 93.2684C121.481 93.371 121.315 93.4043 121.149 93.3636C119.26 92.9006 107.195 89.8624 100.191 86.1392C92.5774 82.0918 78.9814 78.8538 78.9814 78.8538C78.9814 78.8538 83.876 73.9968 85.5075 66.9812C87.139 61.5846 90.9459 59.4259 90.9459 59.4259Z" fill="#E7F1FD"/>
<path d="M178.504 57.8071L135.541 73.4573C135.541 73.4573 140.436 76.1556 141.523 81.0126C142.575 85.7075 144.642 91.4109 147.726 95.1983C147.911 95.4254 148.233 95.4815 148.488 95.3375C153.901 92.2827 158.152 89.0567 169.803 85.6205C181.767 82.0919 180.495 80.6552 188.74 77.4736C188.74 77.4736 183.399 69.14 182.311 64.283C181.223 59.4261 178.504 57.8071 178.504 57.8071Z" fill="#A8CCF8"/>
<path d="M100.828 43.8104C105.214 42.5294 111.369 39.8553 114.502 38.5743C121.395 41.1363 121.6 44.6961 126.072 49.1425C127.561 50.6224 127.65 55.4834 127.65 55.4834C127.65 55.4834 125.02 60.7675 112.924 61.8244C111.872 57.0687 112.46 53.7293 109.768 50.7277C107.076 47.7262 103.334 48.2939 100.828 43.8104Z" fill="#2538BF"/>
<path d="M100.828 43.8104C105.214 42.5294 111.48 39.3269 114.614 38.0459C121.507 40.6079 122.047 43.8475 126.52 48.2939C128.008 49.7737 130.279 52.7774 130.279 52.7774C130.279 52.7774 124.013 57.9013 114.614 59.1823C113.36 56.6203 112.292 53.8574 109.601 50.8559C106.909 47.8543 103.334 48.2939 100.828 43.8104Z" fill="#FFD66A"/>
<path d="M54.134 120.918C53.9319 120.943 53.8072 120.692 53.9509 120.548L59.2798 115.194L72.4279 116.251L84.0756 117.777C84.253 117.8 84.3229 118.014 84.1865 118.13C82.8772 119.242 77.9855 123.12 73.4798 123.12C69.2724 122.063 66.2868 121.822 62.4354 121.006C59.4097 120.366 55.6199 120.732 54.134 120.918Z" fill="#B3B6C9"/>
<path d="M54.5466 117.043L60.3318 110.174C60.3318 110.174 68.2207 109.117 71.3762 111.231C73.1186 112.398 82.4207 114.93 82.4207 114.93C82.4207 114.93 81.3688 120.742 74.5318 123.384C70.3244 122.327 69.2725 121.27 65.0651 118.1C61.9096 115.722 54.5466 117.043 54.5466 117.043Z" fill="#FFD66A"/>
<path d="M218.349 125.853C218.489 125.811 218.539 125.641 218.438 125.536C216.248 123.237 209.988 122.658 209.242 122.597C209.192 122.593 209.146 122.591 209.096 122.592C208.451 122.601 203.691 122.738 200.754 124.705C199.31 125.672 196.647 127.214 195.778 127.713C195.645 127.79 195.638 127.975 195.767 128.058C196.733 128.682 200.254 130.767 206.013 132.103C209.169 132.103 209.695 132.631 213.376 128.932C215.992 126.304 216.94 126.282 218.349 125.853Z" fill="#B3B6C9"/>
<path d="M216.431 123.231C216.527 122.845 216.307 122.479 215.951 122.3L206.956 117.781C206.435 117.52 205.795 117.727 205.48 118.217C204.777 119.314 203.377 121.186 201.279 122.591C199.537 123.758 196.546 125.233 196.546 125.233C196.546 125.233 199.701 129.989 206.538 132.631C210.746 131.574 209.168 130.518 213.375 127.347C215.532 125.722 216.215 124.097 216.431 123.231Z" fill="#FFD66A"/>
<g filter="url(#filter0_d_763_68438)">
<path d="M194.969 4.2274L187.08 0.00012207C187.08 0.00012207 183.306 3.60042 180.243 5.28422C178.388 6.30398 174.458 6.86946 174.458 6.86946L182.761 13.7388C182.761 13.7388 188.19 12.7394 190.761 10.5683C193.029 8.65359 194.969 4.2274 194.969 4.2274Z" fill="#FFD66A"/>
</g>
<path d="M177.485 20.2445C170.369 45.8976 152.442 38.6494 158.705 31.7631C164.968 24.8768 176.647 36.8285 151.11 49.0995" stroke="url(#paint1_linear_763_68438)" stroke-width="1.05185" stroke-linecap="round" stroke-dasharray="2.1 2.1"/>
<defs>
<filter id="filter0_d_763_68438" x="172.354" y="0.00012207" width="24.7184" height="17.9461" filterUnits="userSpaceOnUse" color-interpolation-filters="sRGB">
<feFlood flood-opacity="0" result="BackgroundImageFix"/>
<feColorMatrix in="SourceAlpha" type="matrix" values="0 0 0 0 0 0 0 0 0 0 0 0 0 0 0 0 0 0 127 0" result="hardAlpha"/>
<feOffset dy="2.1037"/>
<feGaussianBlur stdDeviation="1.05185"/>
<feComposite in2="hardAlpha" operator="out"/>
<feColorMatrix type="matrix" values="0 0 0 0 0.00635415 0 0 0 0 0.116493 0 0 0 0 0.254167 0 0 0 0.05 0"/>
<feBlend mode="normal" in2="BackgroundImageFix" result="effect1_dropShadow_763_68438"/>
<feBlend mode="normal" in="SourceGraphic" in2="effect1_dropShadow_763_68438" result="shape"/>
</filter>
<linearGradient id="paint0_linear_763_68438" x1="144.786" y1="127.963" x2="183.581" y2="80.1798" gradientUnits="userSpaceOnUse">
<stop stop-color="#2538BF"/>
<stop offset="1" stop-color="#2538BF" stop-opacity="0"/>
</linearGradient>
<linearGradient id="paint1_linear_763_68438" x1="169.724" y1="36.9887" x2="151.12" y2="50.3882" gradientUnits="userSpaceOnUse">
<stop stop-color="#2A60E9"/>
<stop offset="1" stop-color="#2A60E9" stop-opacity="0.29"/>
</linearGradient>
</defs>
</svg>
