<svg width="211" height="130" viewBox="0 0 211 130" fill="none" xmlns="http://www.w3.org/2000/svg">
<mask id="mask0_41_6353" style="mask-type:alpha" maskUnits="userSpaceOnUse" x="1" y="77" width="88" height="22">
<path d="M57.1973 77.3069L4.55381 83.7094C3.37758 83.8525 3.15535 85.4634 4.24893 85.9195L32.6929 97.7847C33.4863 98.1157 34.353 98.2311 35.2053 98.1193L88.1341 91.1775L66.8226 85.3921L57.1973 77.3069Z" fill="#2538BF"/>
</mask>
<g mask="url(#mask0_41_6353)">
<ellipse rx="43.1213" ry="43.9866" transform="matrix(-0.738355 0.674412 0.674412 0.738355 49.8879 85.261)" fill="url(#paint0_linear_41_6353)"/>
</g>
<path d="M32.48 96.1257C32.5261 99.3166 45.4969 101.716 61.4511 101.486C77.4053 101.255 90.3013 98.4813 90.2552 95.2905C90.078 94.3299 89.8936 92.8634 89.3 91.3212C84.8764 89.3148 73.2363 89.7578 61.2841 89.9306C49.8231 90.0963 39.5099 90.0243 34.8694 92.0265C33.6713 93.8395 33.0373 95.1546 32.48 96.1257Z" fill="#9FA4C7"/>
<path d="M57.1902 77.7467L66.3203 76.9617C66.008 79.823 64.7918 86.4028 62.4254 89.8324C62.4254 89.8324 49.1156 95.0853 52.7808 88.9108C56.442 82.7432 56.8667 79.9071 57.1891 77.754L57.1902 77.7467Z" fill="#C4C8EA"/>
<path d="M119.149 5.02187C119.148 4.97805 119.114 4.94218 119.07 4.94062L3.11033 0.830151C3.06369 0.828498 3.02516 0.866225 3.02584 0.912892L4.22782 84.0566C4.2285 84.1039 4.26915 84.1407 4.3163 84.1367L119.343 74.4048C119.385 74.4012 119.418 74.3657 119.418 74.3232L119.149 5.02187Z" fill="#F0F2FF"/>
<path d="M116.749 8.36795L6.34527 4.69682L7.44004 80.4247L116.963 71.497L116.749 8.36795Z" fill="white"/>
<path d="M3.02579 0.908615L1.39968 1.34427L2.59226 83.838L4.22909 84.144L3.02579 0.908615Z" fill="#9FA4C7"/>
<ellipse rx="27.34" ry="5.468" transform="matrix(-0.999896 0.0144551 0.0144551 0.999896 62.0501 92.1231)" fill="#C4C8EA"/>
<path d="M52.07 90.5554L53.6537 87.1843C53.1664 87.3546 48.677 87.3378 46.3176 87.8617C44.8511 88.0461 41.108 88.8348 40.0519 89.1766L52.07 90.5554Z" fill="#9FA4C7"/>
<path d="M89.2259 99.9719C89.7036 98.101 91.3889 96.7919 93.3199 96.7919H169.221C171.226 96.7919 172.955 98.2017 173.359 100.166L178.428 124.813C178.968 127.434 176.966 129.89 174.29 129.89H87.0269C84.2694 129.89 82.2508 127.291 82.933 124.619L89.2259 99.9719Z" fill="#C4C8EA"/>
<rect x="89.0989" y="41.8634" width="82.6274" height="52.1116" rx="4.22526" fill="#F0F2FF"/>
<path d="M89.2259 97.3898C89.7036 95.5188 91.3889 94.2098 93.3199 94.2098H169.221C171.226 94.2098 172.955 95.6195 173.359 97.5838L178.428 122.231C178.968 124.852 176.966 127.308 174.29 127.308H87.0269C84.2694 127.308 82.2508 124.709 82.933 122.037L89.2259 97.3898Z" fill="#F0F2FF"/>
<path d="M92.7456 98.213C92.9473 97.3792 93.6936 96.7919 94.5514 96.7919H166.931C167.81 96.7919 168.569 97.4081 168.75 98.2686L171.022 109.106C171.264 110.261 170.383 111.346 169.204 111.346H91.9294C90.7265 111.346 89.8407 110.22 90.1236 109.051L92.7456 98.213Z" fill="#DEE2FD"/>
<path d="M116.998 114.797C117.138 113.891 117.918 113.223 118.834 113.223H141.722C142.657 113.223 143.447 113.918 143.565 114.846L144.23 120.05C144.371 121.161 143.506 122.143 142.387 122.143H118.027C116.888 122.143 116.017 121.127 116.191 120.001L116.998 114.797Z" fill="#C4C8EA"/>
<rect x="91.4462" y="44.6801" width="77.9326" height="46.4779" rx="4.0577" fill="white"/>
<circle cx="130.413" cy="43.2719" r="0.469474" fill="white"/>
<path d="M210.276 75.3091C210.276 74.1657 209.473 72.7752 208.483 72.2035L195.795 64.8783C193.375 63.4807 191.412 64.6137 191.412 67.4088L191.412 106.644C191.412 107.788 192.215 109.178 193.205 109.75L205.893 117.075C208.314 118.473 210.276 117.34 210.276 114.544L210.276 75.3091Z" fill="#C4C8EA"/>
<path d="M208.436 75.2923C208.436 74.1488 207.633 72.7584 206.642 72.1867L193.955 64.8614C191.534 63.4639 189.572 64.5968 189.572 67.3919L189.572 106.627C189.572 107.771 190.375 109.161 191.365 109.733L204.053 117.058C206.473 118.456 208.436 117.323 208.436 114.528L208.436 75.2923Z" fill="#F0F2FF"/>
<rect width="18.4035" height="43.2483" rx="2.0704" transform="matrix(-0.866025 -0.5 -2.20305e-08 1 206.32 74.0799)" fill="white"/>
<path d="M203.605 71.9731L195.031 67.0967C194.812 66.972 194.718 67.2378 194.891 67.4934V67.4934C194.938 67.5632 194.969 67.6432 194.977 67.7165L195.027 68.1514C195.105 68.8292 195.575 69.5702 196.128 69.8898L201.455 72.965C201.96 73.2568 202.388 73.0748 202.46 72.5382V72.5382C202.507 72.1843 202.713 71.9731 203.011 71.9731L203.605 71.9731Z" fill="#F0F2FF"/>
<defs>
<linearGradient id="paint0_linear_41_6353" x1="13.7824" y1="75.2595" x2="80.6615" y2="25.9418" gradientUnits="userSpaceOnUse">
<stop stop-color="#9FA4C7"/>
<stop offset="1" stop-color="#9FA4C7" stop-opacity="0"/>
</linearGradient>
</defs>
</svg>
